<?xml version="1.0" encoding="UTF-8" standalone="no"?>
<!-- Created with Inkscape (http://www.inkscape.org/) -->

<svg
   width="100"
   height="100"
   viewBox="0 0 26.458333 26.458334"
   version="1.1"
   id="svg5"
   inkscape:version="1.1 (c68e22c387, 2021-05-23)"
   sodipodi:docname="air.svg"
   xmlns:inkscape="http://www.inkscape.org/namespaces/inkscape"
   xmlns:sodipodi="http://sodipodi.sourceforge.net/DTD/sodipodi-0.dtd"
   xmlns="http://www.w3.org/2000/svg"
   xmlns:svg="http://www.w3.org/2000/svg">
  <sodipodi:namedview
     id="namedview7"
     pagecolor="#505050"
     bordercolor="#eeeeee"
     borderopacity="1"
     inkscape:pageshadow="0"
     inkscape:pageopacity="0"
     inkscape:pagecheckerboard="0"
     inkscape:document-units="mm"
     showgrid="false"
     units="px"
     inkscape:zoom="2"
     inkscape:cx="50.25"
     inkscape:cy="50.25"
     inkscape:window-width="2378"
     inkscape:window-height="1361"
     inkscape:window-x="2519"
     inkscape:window-y="0"
     inkscape:window-maximized="0"
     inkscape:current-layer="layer1" />
  <defs
     id="defs2">
    <inkscape:path-effect
       effect="taper_stroke"
       id="path-effect2012"
       is_visible="true"
       lpeversion="1"
       stroke_width="2"
       attach_start="0.6"
       end_offset="0.3"
       start_smoothing="0.5"
       end_smoothing="0.5"
       jointype="extrapolated"
       start_shape="center"
       end_shape="center"
       miter_limit="100" />
    <inkscape:path-effect
       effect="taper_stroke"
       id="path-effect1799"
       is_visible="true"
       lpeversion="1"
       stroke_width="0.76"
       attach_start="0.6"
       end_offset="0.3"
       start_smoothing="0.5"
       end_smoothing="0.5"
       jointype="extrapolated"
       start_shape="center"
       end_shape="center"
       miter_limit="100" />
    <inkscape:path-effect
       effect="taper_stroke"
       id="path-effect1699"
       is_visible="true"
       lpeversion="1"
       stroke_width="2"
       attach_start="0.6"
       end_offset="0.5"
       start_smoothing="0.5"
       end_smoothing="0.5"
       jointype="extrapolated"
       start_shape="center"
       end_shape="center"
       miter_limit="100" />
  </defs>
  <g
     inkscape:groupmode="layer"
     id="layer2"
     inkscape:label="Layer 2">
    <circle
       style="fill:#ffffff;fill-opacity:1;fill-rule:evenodd;stroke-width:0.264583"
       id="path2277"
       cx="13.264889"
       cy="13.241075"
       r="12.812407" />
  </g>
  <g
     inkscape:label="Layer 1"
     inkscape:groupmode="layer"
     id="layer1">
    <path
       style="fill:#000000;fill-rule:nonzero;stroke:none;stroke-width:0.26458333;stroke-linecap:butt;stroke-linejoin:miter;stroke-opacity:1;stroke-miterlimit:4;stroke-dasharray:none"
       d="M 15.46949,9.9064156 C 11.634414,9.3320921 8.0354433,10.304617 5.4340945,11.277787 2.8422252,12.247411 1.2543298,13.13236 1.2543298,13.13236 c 0,0 1.7732491,-0.410726 4.4461445,-0.88169 2.7064087,-0.476869 6.1102257,-0.924405 9.4580877,-0.368571 1.725718,0.271588 3.156447,0.748866 4.937005,0.697046 2.338442,-0.06806 4.21413,-1.091191 4.196428,-2.8165204 C 23.953587,7.8049868 22.370687,7.245097 21.346207,7.1555272 20.26223,7.0607556 19.639418,7.2634189 19.639418,7.2634189 c 0,0 0.541429,0.3551924 1.344194,0.9287353 0.830816,0.5935846 1.575056,1.1220679 1.308489,1.5909895 0.0011,0.1086043 -0.405238,0.7430213 -2.254716,0.7968473 -1.585393,0.04614 -2.751031,-0.387643 -4.567895,-0.6735754 z"
       id="path42"
       sodipodi:nodetypes="csc"
       inkscape:path-effect="#path-effect1699"
       inkscape:original-d="M 1.2543298,13.13236 C 14.056549,8.6712754 15.859037,11.702019 20.066476,11.579568 24.26311,11.457432 24.61372,8.3225968 19.639418,7.2634189" />
    <path
       style="fill:#000000;fill-rule:nonzero;stroke:none;stroke-width:0.264583;stroke-linecap:butt;stroke-linejoin:miter;stroke-opacity:1;font-variation-settings:normal;opacity:1;vector-effect:none;fill-opacity:1;stroke-miterlimit:4;stroke-dasharray:none;stroke-dashoffset:0;-inkscape-stroke:none;stop-color:#000000;stop-opacity:1"
       d="m 14.176635,12.723672 c -3.463498,-0.379058 -6.6873179,0.324348 -9.0960674,1.12112 -2.3712237,0.78436 -3.8249279,1.566365 -3.8249279,1.566365 0,0 1.6236647,-0.305104 4.0429672,-0.587315 2.505857,-0.292308 5.4978661,-0.481396 8.6535621,-0.112806 2.052437,0.231816 3.792136,0.693908 5.713101,1.063258 2.681359,0.515553 2.860115,1.275849 2.851051,1.319947 -0.02676,0.130192 -0.262661,0.444055 -0.956931,0.662948 -0.71902,0.239208 -1.257512,0.418981 -2.001881,0.568088 -0.64346,0.128893 -1.155155,0.171335 -1.155155,0.171335 0,0 0.291676,0.423668 0.960703,0.812948 0.675342,0.392955 1.70586,0.687618 2.797722,0.355071 1.079859,-0.340464 2.094465,-1.096795 2.314587,-2.167722 0.361258,-1.75758 -1.347821,-3.093546 -4.432466,-3.686641 -1.878465,-0.361178 -3.729419,-0.845246 -5.866265,-1.086596 z"
       id="path42-7"
       sodipodi:nodetypes="csc"
       inkscape:path-effect="#path-effect2012"
       inkscape:original-d="M 1.2556397,15.411157 C 11.00794,12.292109 15.104797,13.879121 19.854085,14.792281 c 6.864291,1.319819 2.736037,5.438997 -1.451731,3.704331" />
  </g>
</svg>
