<?xml version="1.0" encoding="UTF-8" standalone="no"?>
<!-- Created with Inkscape (http://www.inkscape.org/) -->

<svg
   width="100"
   height="100"
   viewBox="0 0 26.458333 26.458334"
   version="1.1"
   id="svg5"
   inkscape:version="1.1 (c68e22c387, 2021-05-23)"
   sodipodi:docname="earth.svg"
   xmlns:inkscape="http://www.inkscape.org/namespaces/inkscape"
   xmlns:sodipodi="http://sodipodi.sourceforge.net/DTD/sodipodi-0.dtd"
   xmlns="http://www.w3.org/2000/svg"
   xmlns:svg="http://www.w3.org/2000/svg">
  <sodipodi:namedview
     id="namedview7"
     pagecolor="#505050"
     bordercolor="#eeeeee"
     borderopacity="1"
     inkscape:pageshadow="0"
     inkscape:pageopacity="0"
     inkscape:pagecheckerboard="0"
     inkscape:document-units="mm"
     showgrid="false"
     units="px"
     inkscape:zoom="5.65"
     inkscape:cx="50"
     inkscape:cy="49.292035"
     inkscape:window-width="2378"
     inkscape:window-height="1361"
     inkscape:window-x="2519"
     inkscape:window-y="0"
     inkscape:window-maximized="0"
     inkscape:current-layer="layer1" />
  <defs
     id="defs2">
    <inkscape:path-effect
       effect="taper_stroke"
       id="path-effect9886"
       is_visible="true"
       lpeversion="1"
       stroke_width="2"
       attach_start="0.5"
       end_offset="0.52036098"
       start_smoothing="0.5"
       end_smoothing="0.5"
       jointype="extrapolated"
       start_shape="left"
       end_shape="left"
       miter_limit="100" />
    <inkscape:path-effect
       effect="taper_stroke"
       id="path-effect7554"
       is_visible="true"
       lpeversion="1"
       stroke_width="0.5"
       attach_start="0.5"
       end_offset="0.99999"
       start_smoothing="0.5"
       end_smoothing="0"
       jointype="extrapolated"
       start_shape="center"
       end_shape="center"
       miter_limit="100" />
    <inkscape:path-effect
       effect="taper_stroke"
       id="path-effect4565"
       is_visible="true"
       lpeversion="1"
       stroke_width="0.5"
       attach_start="0.2"
       end_offset="0.23720234"
       start_smoothing="0.5"
       end_smoothing="0.5"
       jointype="extrapolated"
       start_shape="center"
       end_shape="center"
       miter_limit="100" />
    <inkscape:path-effect
       effect="taper_stroke"
       id="path-effect4563"
       is_visible="true"
       lpeversion="1"
       stroke_width="0.5"
       attach_start="0.4"
       end_offset="0.99999"
       start_smoothing="0.5"
       end_smoothing="0.5"
       jointype="extrapolated"
       start_shape="center"
       end_shape="center"
       miter_limit="100" />
    <inkscape:path-effect
       effect="taper_stroke"
       id="path-effect4447"
       is_visible="true"
       lpeversion="1"
       stroke_width="0.26458299"
       attach_start="0.2"
       end_offset="0.2"
       start_smoothing="0.5"
       end_smoothing="0.5"
       jointype="extrapolated"
       start_shape="center"
       end_shape="center"
       miter_limit="100" />
    <inkscape:path-effect
       effect="taper_stroke"
       id="path-effect2012"
       is_visible="true"
       lpeversion="1"
       stroke_width="0.76"
       attach_start="0.6"
       end_offset="0.3"
       start_smoothing="0.5"
       end_smoothing="0.5"
       jointype="extrapolated"
       start_shape="center"
       end_shape="center"
       miter_limit="100" />
    <inkscape:path-effect
       effect="taper_stroke"
       id="path-effect1799"
       is_visible="true"
       lpeversion="1"
       stroke_width="0.76"
       attach_start="0.6"
       end_offset="0.3"
       start_smoothing="0.5"
       end_smoothing="0.5"
       jointype="extrapolated"
       start_shape="center"
       end_shape="center"
       miter_limit="100" />
    <inkscape:path-effect
       effect="taper_stroke"
       id="path-effect1699"
       is_visible="true"
       lpeversion="1"
       stroke_width="0.76"
       attach_start="0.6"
       end_offset="0.3"
       start_smoothing="0.5"
       end_smoothing="0.5"
       jointype="extrapolated"
       start_shape="center"
       end_shape="center"
       miter_limit="100" />
  </defs>
  <g
     inkscape:groupmode="layer"
     id="layer2"
     inkscape:label="Layer 2"
     sodipodi:insensitive="true">
    <circle
       style="fill:#ffffff;fill-opacity:1;fill-rule:evenodd;stroke-width:0.264583"
       id="path2277"
       cx="13.264889"
       cy="13.241075"
       r="12.812407"
       sodipodi:insensitive="true" />
  </g>
  <g
     inkscape:label="Layer 1"
     inkscape:groupmode="layer"
     id="layer1">
    <path
       style="fill:#000000;fill-rule:nonzero;stroke:none;stroke-width:0.264583px;stroke-linecap:butt;stroke-linejoin:miter;stroke-opacity:1"
       d="m 3.5872888,19.084557 c 1.5312134,1.870345 3.8284435,2.694797 5.9701126,2.931961 3.8209926,0.487817 7.6155636,-0.152509 11.2051806,-0.997541 -3.788278,0.0082 -7.580599,0.03119 -10.9767288,-0.734333 C 7.9226464,19.835346 6.092533,19.150978 5.1671734,17.858195 3.5574411,15.784427 4.2366927,12.377094 6.1568074,9.3215008 9.9865452,3.1641936 15.284249,5.826435 18.642246,8.5432705 l -0.01081,-0.00887 c 4.025567,3.3511183 5.588403,5.3506953 2.91668,8.3469163 a 9.6799653,9.6799653 0 0 1 -0.03955,0.04408 1.2811741,1.2811741 0 0 1 -0.02649,0.03836 c -0.967993,1.348686 -5.141343,1.629562 -8.516082,1.038756 -0.806707,-0.144135 -1.588417,-0.251655 -2.363798,-0.410735 0,0 0,-1e-6 0,-1e-6 -0.52693,-0.15159 -1.0245525,-0.164314 -1.3412029,-0.409819 0,0 0,0 0,0 -0.2054265,0.0081 -0.2780164,-0.377791 -0.099713,-0.720571 0.4280618,-0.783273 1.3043135,-1.469277 2.0206815,-2.093585 -0.83685,0.20966 -1.8440505,0.527765 -2.7473307,1.286995 -0.6134298,0.527496 -0.7989782,1.419912 -0.3497248,2.356415 l 5e-7,1e-6 c 0.595859,0.738042 1.3067607,1.08874 1.8647347,1.254041 l 4e-7,0 c 0.8882529,0.343154 1.7909249,0.556051 2.6714629,0.707298 3.58701,0.627967 8.795085,0.513006 10.485787,-1.842615 l -0.06604,0.08244 c 3.877784,-4.348768 1.145629,-7.655935 -3.12984,-11.2150877 a 58.484388,58.484388 0 0 0 -0.0053,-0.00443 20.523815,20.523815 0 0 0 -0.0055,-0.00443 C 16.013654,3.8439571 9.1839121,0.66787097 4.4609566,8.2612796 2.3111279,11.682408 1.2453251,16.067478 3.5872888,19.084557 Z"
       id="path8180"
       sodipodi:nodetypes="ccccc"
       inkscape:path-effect="#path-effect9886"
       inkscape:original-d="M 20.537054,20.04474 C 1.8175507,24.37815 1.2401611,15.266157 5.3076595,8.7933456 9.5860806,1.9146626 15.648449,4.8347893 19.271228,7.765851 c 4.150825,3.455391 6.299496,6.106845 3.02326,9.781002 -2.79192,3.889927 -20.0976932,0.47309 -10.833497,-2.218761" />
  </g>
</svg>
