<?xml version="1.0" encoding="UTF-8" standalone="no"?>
<!-- Created with Inkscape (http://www.inkscape.org/) -->

<svg
   width="100"
   height="100"
   viewBox="0 0 26.458333 26.458334"
   version="1.1"
   id="svg5"
   inkscape:version="1.1 (c68e22c387, 2021-05-23)"
   sodipodi:docname="fire.svg"
   xmlns:inkscape="http://www.inkscape.org/namespaces/inkscape"
   xmlns:sodipodi="http://sodipodi.sourceforge.net/DTD/sodipodi-0.dtd"
   xmlns="http://www.w3.org/2000/svg"
   xmlns:svg="http://www.w3.org/2000/svg">
  <sodipodi:namedview
     id="namedview7"
     pagecolor="#505050"
     bordercolor="#eeeeee"
     borderopacity="1"
     inkscape:pageshadow="0"
     inkscape:pageopacity="0"
     inkscape:pagecheckerboard="0"
     inkscape:document-units="mm"
     showgrid="false"
     units="px"
     inkscape:zoom="11.11"
     inkscape:cx="50"
     inkscape:cy="50"
     inkscape:window-width="2378"
     inkscape:window-height="1361"
     inkscape:window-x="2519"
     inkscape:window-y="0"
     inkscape:window-maximized="0"
     inkscape:current-layer="layer1" />
  <defs
     id="defs2">
    <inkscape:path-effect
       effect="taper_stroke"
       id="path-effect7554"
       is_visible="true"
       lpeversion="1"
       stroke_width="2"
       attach_start="0.5"
       end_offset="0.99999"
       start_smoothing="0.5"
       end_smoothing="0"
       jointype="extrapolated"
       start_shape="center"
       end_shape="center"
       miter_limit="100" />
    <inkscape:path-effect
       effect="taper_stroke"
       id="path-effect4565"
       is_visible="true"
       lpeversion="1"
       stroke_width="2"
       attach_start="0.2"
       end_offset="0.337"
       start_smoothing="0.5"
       end_smoothing="0.5"
       jointype="extrapolated"
       start_shape="center"
       end_shape="left"
       miter_limit="100" />
    <inkscape:path-effect
       effect="taper_stroke"
       id="path-effect4563"
       is_visible="true"
       lpeversion="1"
       stroke_width="0.5"
       attach_start="0.4"
       end_offset="0.99999"
       start_smoothing="0.5"
       end_smoothing="0.5"
       jointype="extrapolated"
       start_shape="center"
       end_shape="center"
       miter_limit="100" />
    <inkscape:path-effect
       effect="taper_stroke"
       id="path-effect4447"
       is_visible="true"
       lpeversion="1"
       stroke_width="1"
       attach_start="0.2"
       end_offset="0.2"
       start_smoothing="0.5"
       end_smoothing="0.5"
       jointype="extrapolated"
       start_shape="center"
       end_shape="center"
       miter_limit="100" />
    <inkscape:path-effect
       effect="taper_stroke"
       id="path-effect2012"
       is_visible="true"
       lpeversion="1"
       stroke_width="0.76"
       attach_start="0.6"
       end_offset="0.3"
       start_smoothing="0.5"
       end_smoothing="0.5"
       jointype="extrapolated"
       start_shape="center"
       end_shape="center"
       miter_limit="100" />
    <inkscape:path-effect
       effect="taper_stroke"
       id="path-effect1799"
       is_visible="true"
       lpeversion="1"
       stroke_width="0.76"
       attach_start="0.6"
       end_offset="0.3"
       start_smoothing="0.5"
       end_smoothing="0.5"
       jointype="extrapolated"
       start_shape="center"
       end_shape="center"
       miter_limit="100" />
    <inkscape:path-effect
       effect="taper_stroke"
       id="path-effect1699"
       is_visible="true"
       lpeversion="1"
       stroke_width="0.76"
       attach_start="0.6"
       end_offset="0.3"
       start_smoothing="0.5"
       end_smoothing="0.5"
       jointype="extrapolated"
       start_shape="center"
       end_shape="center"
       miter_limit="100" />
  </defs>
  <g
     inkscape:groupmode="layer"
     id="layer2"
     inkscape:label="Layer 2"
     sodipodi:insensitive="true">
    <circle
       style="fill:#ffffff;fill-opacity:1;fill-rule:evenodd;stroke-width:0.264583"
       id="path2277"
       cx="13.264889"
       cy="13.241075"
       r="12.812407"
       sodipodi:insensitive="true" />
  </g>
  <g
     inkscape:label="Layer 1"
     inkscape:groupmode="layer"
     id="layer1">
    <path
       style="fill:#000000;fill-rule:nonzero;stroke:none;stroke-width:0.264583px;stroke-linecap:butt;stroke-linejoin:miter;stroke-opacity:1"
       d="m 12.270681,21.927153 c 0.199445,1.922455 1.232357,3.530955 1.232357,3.530955 0,0 -0.05713,-1.891524 -0.237689,-3.634085 -0.09014,-0.869365 -0.110049,-1.685091 -0.08425,-2.433778 0.02048,-0.59437 0.215389,-3.244971 0.923576,-4.878634 l -0.909218,0.01811 c 0.374643,0.777791 0.666027,2.063492 0.785141,2.735173 0.208179,1.173912 0.338477,2.683286 0.191288,4.447181 -0.149058,1.789163 -0.168739,3.722216 -0.168739,3.722216 0,0 1.001155,-1.675257 1.165276,-3.639059 0.0776,-0.929965 0.08216,-1.794082 0.03963,-2.581822 -0.04988,-0.923932 -0.341204,-3.518105 -1.111664,-5.117647 a 5.4769398,5.4769398 0 0 0 -0.476848,-0.805611 6.2644727,6.2644727 0 0 0 -0.43237,0.823723 c -0.767379,1.770211 -0.979975,4.501681 -1.005481,5.241933 -0.02727,0.791365 -0.0062,1.653182 0.08899,2.571343 z"
       id="path3624"
       sodipodi:nodetypes="ccc"
       inkscape:path-effect="#path-effect4447"
       inkscape:original-d="m 13.503038,25.458108 c -1.95282,-6.310943 0.142884,-11.145364 0.142884,-11.145364 0,0 2.190969,4.548642 0.357223,11.121549" />
    <path
       style="fill:#000000;fill-rule:nonzero;stroke:none;stroke-width:0.132292;stroke-linecap:butt;stroke-linejoin:miter;stroke-opacity:1"
       d="m 9.6370557,16.691384 c -0.4268365,2.550337 0.4346533,4.819518 1.2954183,6.369754 0.859151,1.54733 1.641783,2.39697 1.641783,2.39697 0,0 -0.335973,-1.106802 -0.697094,-2.757836 -0.368045,-1.682694 -0.678652,-3.706194 -0.273665,-5.644051 0.389288,-2.09823 1.516157,-4.079038 2.416422,-7.3129491 a 30.490687,30.490687 0 0 0 0.01239,-0.044653 l 0.0082,-0.044933 c 0,0 0.04166,-0.698932 -0.173054,-1.5542285 -0.231533,-0.9222914 -0.678522,-1.7674829 -1.263149,-2.553666 l 0,0 C 12.241697,5.0505201 11.887495,4.657361 11.606568,4.3699822 l 0,0 C 11.469251,4.2294898 11.358803,4.1239178 11.276434,4.0475531 l 0,0 c 0,0 0,-1e-7 0,-1e-7 -0.04092,-0.037963 -0.07166,-0.065658 -0.0945,-0.085959 l 0,-1e-7 c -0.02493,-0.015984 -0.0346,-0.029808 -0.03642,-0.031967 -1.69e-4,-2e-4 -1.45e-4,-1.715e-4 -1.45e-4,-1.715e-4 0,0 -2.4e-5,-2.87e-5 1.44e-4,1.724e-4 0.0018,0.00217 0.01372,0.014163 0.02424,0.042005 l 0,0 c 0.01507,0.02659 0.03509,0.062478 0.06129,0.1111109 0,1e-7 0,1e-7 0,2e-7 l 0,0 c 0.05314,0.098525 0.122396,0.231843 0.205666,0.406257 l 0,0 c 0.17089,0.3580041 0.370608,0.8261628 0.542555,1.3765233 l 0,0 c 0.266207,0.8760658 0.393022,1.7020285 0.341091,2.40447 -0.04832,0.6535774 -0.247695,1.0263317 -0.247695,1.0263317 0,0 -1.1e-5,6.02e-5 -1.1e-5,6.02e-5 l 0.02054,-0.089485 c -0.86991,3.1248653 -2.025939,5.1657863 -2.4561303,7.4844823 z"
       id="path3626"
       sodipodi:nodetypes="ccc"
       inkscape:path-effect="#path-effect7554"
       inkscape:original-d="M 12.574257,25.458108 C 8.4907565,17.518546 11.286378,15.833863 13.056553,9.4750868 13.546081,6.7798022 11.145364,3.9294555 11.145364,3.9294555" />
    <path
       style="fill:#000000;fill-rule:nonzero;stroke:none;stroke-width:0.264583px;stroke-linecap:butt;stroke-linejoin:miter;stroke-opacity:1"
       d="m 15.858133,20.178051 c -0.618877,2.449004 -1.140536,5.327686 -1.140536,5.327686 0,0 2.325199,-1.878047 3.079047,-4.835575 C 18.828241,16.606528 18.34465,12.784846 17.036345,9.3401521 16.078748,6.828288 14.120639,4.870007 11.561615,3.698184 c 1.481632,1.968878 2.748843,4.0884424 3.605041,6.352081 1.185096,3.120294 1.606072,6.525039 0.691477,10.127786 z"
       id="path3628"
       sodipodi:nodetypes="cc"
       inkscape:path-effect="#path-effect4565"
       inkscape:original-d="M 14.717597,25.505737 C 19.733277,16.860874 16.828344,9.0190204 12.359923,3.0959345" />
  </g>
</svg>
