<?xml version="1.0" encoding="UTF-8" standalone="no"?>
<!-- Created with Inkscape (http://www.inkscape.org/) -->

<svg
   width="100"
   height="100"
   viewBox="0 0 26.458333 26.458334"
   version="1.1"
   id="svg5"
   inkscape:version="1.1 (c68e22c387, 2021-05-23)"
   sodipodi:docname="water.svg"
   xmlns:inkscape="http://www.inkscape.org/namespaces/inkscape"
   xmlns:sodipodi="http://sodipodi.sourceforge.net/DTD/sodipodi-0.dtd"
   xmlns="http://www.w3.org/2000/svg"
   xmlns:svg="http://www.w3.org/2000/svg">
  <sodipodi:namedview
     id="namedview7"
     pagecolor="#505050"
     bordercolor="#eeeeee"
     borderopacity="1"
     inkscape:pageshadow="0"
     inkscape:pageopacity="0"
     inkscape:pagecheckerboard="0"
     inkscape:document-units="mm"
     showgrid="false"
     units="px"
     inkscape:zoom="11.11"
     inkscape:cx="50"
     inkscape:cy="50"
     inkscape:window-width="2378"
     inkscape:window-height="1361"
     inkscape:window-x="2460"
     inkscape:window-y="0"
     inkscape:window-maximized="0"
     inkscape:current-layer="layer1" />
  <defs
     id="defs2">
    <inkscape:path-effect
       effect="taper_stroke"
       id="path-effect2012"
       is_visible="true"
       lpeversion="1"
       stroke_width="2"
       attach_start="0.6"
       end_offset="0.3"
       start_smoothing="0.5"
       end_smoothing="0.5"
       jointype="extrapolated"
       start_shape="center"
       end_shape="center"
       miter_limit="100" />
    <inkscape:path-effect
       effect="taper_stroke"
       id="path-effect1799"
       is_visible="true"
       lpeversion="1"
       stroke_width="2"
       attach_start="0.6"
       end_offset="0.3"
       start_smoothing="0.5"
       end_smoothing="0.5"
       jointype="extrapolated"
       start_shape="center"
       end_shape="center"
       miter_limit="100" />
    <inkscape:path-effect
       effect="taper_stroke"
       id="path-effect1699"
       is_visible="true"
       lpeversion="1"
       stroke_width="2"
       attach_start="0.6"
       end_offset="0.3"
       start_smoothing="0.5"
       end_smoothing="0.5"
       jointype="extrapolated"
       start_shape="center"
       end_shape="center"
       miter_limit="100" />
  </defs>
  <g
     inkscape:groupmode="layer"
     id="layer2"
     inkscape:label="Layer 2">
    <circle
       style="fill:#ffffff;fill-opacity:1;fill-rule:evenodd;stroke-width:0.264583"
       id="path2277"
       cx="13.264889"
       cy="13.241075"
       r="12.812407" />
  </g>
  <g
     inkscape:label="Layer 1"
     inkscape:groupmode="layer"
     id="layer1">
    <path
       style="fill:#000000;fill-rule:nonzero;stroke:none;stroke-width:0.264583px;stroke-linecap:butt;stroke-linejoin:miter;stroke-opacity:1"
       d="M 15.29192,8.3361175 C 13.731343,7.6766529 12.184974,6.846018 10.289025,6.6569777 c 0,0 -1e-6,2e-7 -1e-6,2e-7 C 7.8370758,6.4885824 5.7862364,7.4231782 4.5326036,8.1233033 3.2237794,8.8542514 2.5296167,9.4225958 2.5296167,9.4225958 c 0,0 0.8368884,-0.330346 2.2410496,-0.7270269 1.339745,-0.378483 3.3900825,-0.8477316 5.2861357,-0.4014933 0,4e-7 1e-6,2e-7 1e-6,2e-7 1.377556,0.2719448 2.7664,1.1984 4.470533,1.8901252 0.554329,0.229335 1.152094,0.438177 1.813617,0.583175 2.158017,0.434756 4.106385,-0.215292 5.439573,-0.9082832 1.32737,-0.689967 2.047691,-1.3519415 2.047691,-1.3519415 0,0 -0.957676,0.205256 -2.356782,0.3905356 -1.437679,0.1903877 -3.10911,0.3028489 -4.702273,-0.083933 C 16.254794,8.7010112 15.772568,8.5349698 15.29192,8.3361175 Z"
       id="path42"
       sodipodi:nodetypes="cc"
       inkscape:path-effect="#path-effect1699"
       inkscape:original-d="M 2.5296167,9.4225958 C 14.163578,3.2708639 12.781776,13.605462 23.828217,8.5071513" />
    <path
       style="fill:#000000;fill-rule:nonzero;stroke:none;stroke-width:0.264583px;stroke-linecap:butt;stroke-linejoin:miter;stroke-opacity:1"
       d="m 15.340903,12.139876 c -1.940554,-0.561889 -3.67844,-1.362024 -5.8388436,-1.55123 0,0 -1e-6,0 -1e-6,0 -2.553106,-0.177846 -4.703474,0.683529 -6.0462147,1.374017 -1.3873015,0.713402 -2.1155422,1.297177 -2.1155422,1.297177 0,0 0.8644856,-0.358309 2.3284779,-0.746194 1.4153897,-0.375009 3.5394047,-0.78475 5.6152845,-0.330814 0,0 9e-7,0 9e-7,0 1.6748492,0.328824 3.4279332,1.285339 5.5039202,1.879096 0.676109,0.194496 1.393071,0.353667 2.170671,0.434453 2.459802,0.224043 4.602094,-0.661533 6.075255,-1.543831 1.462679,-0.876019 2.250826,-1.666487 2.250826,-1.666487 0,0 -1.059613,0.354835 -2.636166,0.734717 -1.620554,0.390485 -3.545989,0.718683 -5.483244,0.486308 -0.632545,-0.06572 -1.232131,-0.196827 -1.824424,-0.367212 z"
       id="path42-1"
       sodipodi:nodetypes="cc"
       inkscape:path-effect="#path-effect1799"
       inkscape:original-d="M 1.3403015,13.25984 C 12.974262,7.1081089 13.380959,17.97997 25.284737,11.286063" />
    <path
       style="fill:#000000;fill-rule:nonzero;stroke:none;stroke-width:0.264583px;stroke-linecap:butt;stroke-linejoin:miter;stroke-opacity:1"
       d="m 15.512225,15.633622 c -1.65016,-0.663332 -3.265908,-1.486484 -5.220805,-1.668044 0,0 -1e-6,0 -1e-6,0 -2.4796549,-0.162474 -4.5578518,0.759109 -5.8347564,1.459042 -1.3299718,0.729023 -2.0342128,1.301714 -2.0342128,1.301714 0,0 0.8452102,-0.337889 2.2663714,-0.73499 1.3598688,-0.379975 3.4332799,-0.839877 5.3798518,-0.398392 0,0 10e-7,0 10e-7,0 1.453516,0.28125 2.930248,1.211511 4.709824,1.90122 0.577735,0.227836 1.197325,0.434867 1.877614,0.578547 2.178665,0.425886 4.151131,-0.211984 5.510144,-0.904934 1.350517,-0.688619 2.083961,-1.356896 2.083961,-1.356896 0,0 -0.970373,0.211882 -2.387328,0.395123 -1.460197,0.188833 -3.15276,0.290153 -4.793486,-0.09013 -0.540052,-0.114061 -1.049136,-0.281913 -1.557178,-0.482265 z"
       id="path42-7"
       sodipodi:nodetypes="cc"
       inkscape:path-effect="#path-effect2012"
       inkscape:original-d="M 2.4224498,16.726334 C 14.056411,10.574602 13.203776,20.9092 24.250217,15.810889" />
  </g>
</svg>
