<?xml version="1.0" encoding="UTF-8" standalone="no"?>
<!-- Created with Inkscape (http://www.inkscape.org/) -->

<svg
   width="2048mm"
   height="256mm"
   viewBox="0 0 2047.9999 256.00001"
   version="1.1"
   id="svg13613"
   inkscape:version="1.1 (c68e22c387, 2021-05-23)"
   sodipodi:docname="longtest.svg"
   xmlns:inkscape="http://www.inkscape.org/namespaces/inkscape"
   xmlns:sodipodi="http://sodipodi.sourceforge.net/DTD/sodipodi-0.dtd"
   xmlns="http://www.w3.org/2000/svg"
   xmlns:svg="http://www.w3.org/2000/svg">
  <sodipodi:namedview
     id="namedview13615"
     pagecolor="#505050"
     bordercolor="#eeeeee"
     borderopacity="1"
     inkscape:pageshadow="0"
     inkscape:pageopacity="0"
     inkscape:pagecheckerboard="0"
     inkscape:document-units="mm"
     showgrid="false"
     units="mm"
     height="256mm"
     inkscape:zoom="0.23474019"
     inkscape:cx="4132.2281"
     inkscape:cy="483.51328"
     inkscape:window-width="2560"
     inkscape:window-height="1361"
     inkscape:window-x="2392"
     inkscape:window-y="0"
     inkscape:window-maximized="0"
     inkscape:current-layer="layer3" />
  <defs
     id="defs13610">
    <rect
       x="332.28225"
       y="174.66118"
       width="1559.1706"
       height="639.00433"
       id="rect72926" />
    <rect
       x="80.940548"
       y="110.76075"
       width="7604.1515"
       height="715.68485"
       id="rect18454" />
  </defs>
  <g
     inkscape:label="Layer 1"
     inkscape:groupmode="layer"
     id="layer1">
    <rect
       style="fill:#ffffff;fill-opacity:1;stroke-width:0.264583"
       id="rect13639"
       width="2048"
       height="256"
       x="0"
       y="0" />
  </g>
  <g
     inkscape:groupmode="layer"
     id="layer3"
     inkscape:label="Layer 2"
     style="display:inline">
    <g
       aria-label="𒁕𒀜𒋫𒀀𒇻𒈾𒈝𒀊𒁍𒅗"
       id="text28104"
       style="font-size:158.75px;line-height:1.25;font-family:'Noto Sans Cuneiform';-inkscape-font-specification:'Noto Sans Cuneiform, Normal';stroke-width:0.264583">
      <path
         d="m -105.8183,189.10417 q 0.635,-3.33375 0.9525,-6.6675 0.3175,-3.175 0.3175,-6.50875 0,-3.175 -0.3175,-6.6675 -0.3175,-3.4925 -0.9525,-7.14375 3.175,1.27 6.82625,2.38125 3.65125,1.11125 8.09625,2.2225 0.15875,-1.74625 0.3175,-3.65125 0.15875,-1.905 0.15875,-3.65125 0,-3.175 -0.635,-5.87375 1.74625,0.635 5.87375,1.5875 4.28625,0.79375 9.8425,1.5875 5.55625,0.79375 11.43,1.42875 6.0325,0.635 11.1125,0.9525 l -0.9525,-15.875 q -6.985,1.11125 -14.76375,2.38125 -7.77875,1.27 -13.97,2.54 -6.19125,1.27 -8.5725,2.54 0.15875,-2.2225 0.3175,-4.60375 0.3175,-2.38125 0.3175,-4.7625 0,-3.33375 -0.635,-6.0325 1.74625,0.635 5.715,1.42875 4.1275,0.79375 9.525,1.5875 5.3975,0.79375 11.1125,1.42875 5.87375,0.635 10.795,1.11125 -0.15875,-4.1275 -0.47625,-7.9375 -0.3175,-3.96875 -0.635,-7.77875 -6.82625,1.11125 -14.44625,2.38125 -7.46125,1.27 -13.49375,2.54 -5.87375,1.27 -8.09625,2.38125 0.15875,-2.2225 0.3175,-4.60375 0.3175,-2.38125 0.3175,-4.7625 0,-3.33375 -0.635,-6.0325 2.2225,0.79375 8.09625,1.905 6.0325,1.11125 13.49375,2.06375 7.62,0.79375 14.2875,1.42875 l -1.42875,-15.08125 q -6.6675,1.11125 -13.97,2.38125 -7.14375,1.11125 -12.7,2.38125 -5.55625,1.11125 -7.77875,2.2225 0.15875,-2.2225 0.3175,-4.60375 0.3175,-2.38125 0.3175,-4.7625 0,-3.33375 -0.635,-6.032497 2.06375,0.79375 7.62,1.904997 5.715,0.9525 12.85875,1.905 7.14375,0.79375 13.6525,1.42875 -0.3175,-4.1275 -0.79375,-7.937497 -0.47625,-3.81 -0.9525,-6.82625 -6.50875,1.11125 -13.335,2.2225 -6.6675,1.11125 -11.90625,2.2225 -5.08,1.11125 -7.14375,2.2225 0.15875,-2.69875 0.3175,-5.3975 0.3175,-2.8575 0.15875,-5.715 -4.7625,0.635 -8.73125,1.5875 -3.96875,0.79375 -7.14375,1.5875 1.905,-9.04875 1.905,-17.62125 0,-8.5725 -1.905,-16.66875 14.2875,3.96875 36.35375,6.6675 22.225,2.54 51.435,4.60375 29.36875,1.905 64.61125,4.28625 -0.79375,-3.65125 -1.74625,-7.3025 -0.9525,-3.65125 -2.06375,-7.62 8.09625,1.905 16.66875,1.905 8.5725,0 17.62125,-1.905 -2.2225,7.9375 -3.96875,16.8275 -1.74625,8.73125 -3.175,19.52625 -1.42875,10.794997 -2.54,24.764997 -1.11125,13.81125 -2.06375,31.90875 -0.79375,18.0975 -1.42875,41.5925 h -4.1275 q -1.5875,-23.65375 -3.01625,-41.11625 -1.27,-17.62125 -2.69875,-30.63875 -1.27,-13.0175 -2.69875,-23.018747 -1.42875,-10.00125 -3.33375,-18.7325 -24.60625,0.79375 -47.46625048,1.905 -22.85999952,1.11125 -42.22749952,2.54 -1.11125,7.14375 -1.905,18.57375 -0.79375,11.271247 -1.5875,25.399997 4.60375,1.74625 12.065,3.33375 7.62,1.42875 16.98625,2.69875 9.3662495,1.11125 19.5262495,2.06375 10.3187505,0.9525 20.1612505,1.5875 4.1275,-3.175 9.525,-7.62 5.55625,-4.445 14.9225,-12.85875 l 3.01625,1.905 q -3.96875,6.0325 -6.6675,11.27125 -2.69875,5.23875 -5.55625,10.4775 2.8575,4.92125 5.55625,10.31875 2.69875,5.3975 6.6675,11.58875 l -3.01625,2.38125 q -6.6675,-6.0325 -10.795,-9.8425 -4.1275,-3.96875 -7.3025,-6.6675 -3.01625,-2.69875 -6.6675,-5.23875 -13.1762505,1.27 -26.5112505,2.8575 -13.1762495,1.42875 -24.2887495,3.4925 -11.1125,2.06375 -18.25625,4.92125 0.635,-3.175 0.9525,-6.35 0.3175,-3.33375 0.3175,-6.6675 0,-2.69875 -0.3175,-5.23875 -0.15875,-2.69875 -0.47625,-5.715 -0.635,10.63625 -1.11125,22.225 -0.47625,11.58875 -1.11125,23.33625 2.54,0.15875 5.08,0.3175 2.69875,0.15875 5.23875,0.3175 v 3.4925 l -10.4775,0.9525 -0.635,11.7475 h -2.38125 l -0.47625,-11.43 q -17.145,1.905 -30.32125,4.445 -13.0175,2.69875 -23.65375,6.985 z M -59.30455,85.757923 q -0.15875,-1.27 -0.3175,-2.38125 -0.15875,-1.11125 -0.47625,-2.06375 -4.92125,0.47625 -9.68375,0.9525 -4.60375,0.47625 -8.89,1.11125 4.445,0.635 9.525,1.27 5.08,0.635 9.8425,1.11125 z m 7.14375,86.359997 -0.635,-10.795 q -5.55625,0.9525 -12.065,2.06375 -6.35,0.9525 -12.22375,2.06375 -5.715,0.9525 -9.68375,2.06375 15.24,3.175 34.6075,4.60375 z"
         id="path29360" />
      <path
         d="m 288.83408,190.53292 q -0.3175,-5.23875 -0.635,-10.00125 -0.3175,-4.7625 -0.635,-9.2075 -27.305,-2.2225 -46.83125,-3.175 -19.3675,-0.9525 -33.9725,-0.9525 -13.49375,0 -23.97125,0.79375 -10.4775,0.79375 -19.84375,2.2225 1.27,-3.65125 2.06375,-7.14375 0.79375,-3.65125 1.42875,-7.14375 -3.175,0.3175 -6.35,0.79375 -3.01625,0.3175 -6.0325,0.79375 -0.635,5.55625 -0.9525,11.7475 -0.3175,6.19125 -0.635,13.0175 h -3.175 q -0.635,-6.82625 -1.27,-12.54125 -0.47625,-5.87375 -1.11125,-11.1125 -4.92125,0.79375 -9.68375,1.905 -4.60375,0.9525 -8.89,2.06375 -0.3175,4.445 -0.635,9.36625 -0.15875,4.92125 -0.47625,10.31875 h -3.175 l -1.74625,-18.0975 q -3.81,1.11125 -7.3025,2.38125 -3.4925,1.11125 -6.82625,2.38125 1.5875,-7.9375 1.5875,-16.66875 0,-8.41375 -1.5875,-17.4625 2.2225,0.9525 4.7625,1.905 2.69875,0.9525 5.55625,1.74625 -1.74625,-7.9375 -4.445,-14.44625 5.55625,1.11125 10.4775,1.11125 4.7625,0 10.95375,-1.11125 -3.01625,7.46125 -4.60375,17.4625 3.175,0.635 6.6675,1.27 3.65125,0.635 7.3025,1.27 -1.905,-10.795 -5.55625,-20.0025 5.55625,1.11125 10.4775,1.11125 4.7625,0 10.95375,-1.11125 -3.4925,8.255 -5.3975,21.59 2.8575,0.3175 5.87375,0.635 3.01625,0.15875 6.0325,0.47625 0,-5.3975 -0.47625,-10.63625 5.08,2.06375 9.8425,3.81 4.92125,1.74625 9.8425,3.4925 -0.9525,-6.985 -3.81,-13.0175 5.87375,-0.3175 14.76375,-1.5875 9.04875,-1.27 20.16125,-3.175 -11.1125,-1.905 -20.16125,-3.175 -8.89,-1.42875 -14.76375,-1.74625 2.8575,-6.0325 3.81,-13.0175 -4.92125,1.5875 -9.8425,3.4925 -4.7625,1.74625 -9.8425,3.81 0.47625,-4.7625 0.47625,-9.525 -18.415,2.2225 -32.86125,5.23875 -14.2875,3.01625 -26.19375,7.9375 1.5875,-7.9375 1.5875,-16.66875 0,-8.413747 -1.5875,-17.462497 9.8425,4.1275 24.765,7.14375 14.9225,3.01625 33.655,4.7625 -0.635,-3.81 -1.5875,-7.62 -0.79375,-3.96875 -2.06375,-7.9375 9.525,1.5875 20.0025,2.38125 10.63625,0.79375 24.4475,0.79375 13.17625,0 30.1625,-0.79375 17.145,-0.79375 40.16375,-2.54 -1.11125,-6.35 -2.69875,-12.3825 -1.42875,-6.0325 -3.175,-12.3825 8.09625,1.905 16.66875,1.905 8.5725,0 17.62125,-1.905 -2.38125,8.89 -4.445,18.89125 -1.905,10.00125 -3.4925,22.70125 -1.42875,12.699997 -2.54,29.844997 -1.11125,16.98625 -2.06375,39.84625 l 5.08,0.79375 -0.3175,4.1275 -4.92125,-0.47625 -0.47625,18.89125 z m -49.68875,-68.8975 43.4975,-7.9375 q -0.79375,-7.9375 -1.74625,-14.446247 -0.79375,-6.6675 -1.905,-12.54125 -21.9075,3.96875 -37.62375,7.14375 -15.71625,3.175 -27.305,6.0325 -11.43,2.698747 -20.955,5.714997 7.62,3.175 19.685,7.46125 12.065,4.1275 26.3525,8.5725 z m 45.56125,13.49375 q -0.3175,-5.08 -0.79375,-9.68375 -0.47625,-4.7625 -0.9525,-8.89 -7.77875,2.06375 -15.71625,4.445 -7.77875,2.2225 -15.5575,4.60375 8.255,2.38125 16.51,4.92125 8.41375,2.38125 16.51,4.60375 z m 2.38125,30.7975 q -0.47625,-7.9375 -1.11125,-14.76375 -0.47625,-6.985 -0.9525,-13.17625 -12.065,-2.2225 -23.65375,-4.28625 -11.43,-2.2225 -22.225,-4.28625 -14.2875,4.445 -26.3525,8.73125 -12.065,4.1275 -19.685,7.46125 10.00125,3.01625 22.38375,6.0325 12.54125,3.01625 29.845,6.50875 17.30375,3.33375 41.75125,7.77875 z"
         id="path29362" />
      <path
         d="m 506.79761,196.40667 q 0,-10.795 -0.635,-26.82875 -0.635,-16.1925 -1.905,-33.9725 -5.08,-3.4925 -10.795,-7.14375 -5.715,-3.81 -11.90625,-7.77875 -10.63625,8.89 -21.59,18.415 -10.795,9.525 -20.6375,18.57375 -9.8425,9.04875 -17.62125,16.8275 -7.62,7.77875 -12.065,13.335 -7.14375,-16.98625 -19.52625,-27.78125 -16.8275,1.11125 -29.845,3.65125 -12.85875,2.38125 -22.38375,5.55625 0.9525,-5.715 0.9525,-12.54125 0,-6.82625 -0.9525,-12.54125 11.43,3.81 27.6225,6.50875 16.1925,2.69875 38.25875,3.4925 l 2.06375,-0.9525 V 78.772923 l -1.905,-0.79375 q -22.06625,0.635 -38.4175,3.33375 -16.1925,2.69875 -27.6225,6.50875 0.9525,-5.715 0.9525,-12.54125 0,-6.82625 -0.9525,-12.54125 9.525,3.175 22.38375,5.55625 13.0175,2.38125 29.845,3.65125 12.3825,-10.795 19.52625,-27.78125 4.60375,5.55625 12.22375,13.49375 7.77875,7.77875 17.4625,16.8275 9.8425,9.04875 20.47875,18.415 10.795,9.366247 21.2725,18.097497 5.3975,-3.4925 10.4775,-6.6675 5.08,-3.33375 9.68375,-6.349997 -1.905,-18.89125 -4.28625,-35.2425 -2.2225,-16.35125 -4.92125,-26.035 8.09625,1.905 16.66875,1.905 8.5725,0 17.62125,-1.905 -1.74625,6.6675 -3.65125,18.415 -1.74625,11.58875 -3.4925,26.3525 -1.5875,14.76375 -3.01625,30.956247 -1.42875,16.1925 -2.54,31.90875 -0.9525,15.71625 -1.5875,29.21 -0.47625,13.49375 -0.47625,22.86 z m -96.2025,-45.4025 q 14.12875,-6.985 30.63875,-16.1925 16.51,-9.36625 32.22625,-19.05 -15.5575,-9.525 -32.0675,-18.732497 -16.51,-9.2075 -30.7975,-16.03375 z m 93.18625,-21.9075 q -0.3175,-6.19125 -0.9525,-12.3825 -0.47625,-6.35 -1.11125,-12.3825 -3.4925,2.54 -7.14375,5.55625 -3.65125,2.8575 -7.3025,6.0325 4.28625,3.4925 8.41375,6.82625 4.28625,3.33375 8.09625,6.35 z"
         id="path29364" />
      <path
         d="m 623.63749,189.10417 q -1.42875,-14.2875 -3.01625,-25.4 -1.5875,-11.1125 -3.4925,-20.16125 -1.74625,-9.2075 -4.1275,-17.145 -2.38125,-7.9375 -5.715,-15.875 3.81,0.635 7.62,1.11125 3.81,0.47625 7.77875,0.47625 -3.65125,-21.907497 -7.62,-35.718747 -3.96875,-13.97 -7.62,-21.9075 4.60375,0.635 9.04875,1.11125 4.60375,0.3175 9.36625,0.3175 3.96875,0 7.9375,-0.3175 3.96875,-0.3175 7.9375,-1.11125 -3.01625,7.62 -7.77875,22.225 -4.60375,14.605 -6.985,35.401247 3.4925,-0.15875 6.985,-0.47625 3.65125,-0.47625 7.62,-1.11125 -5.3975,13.17625 -9.04875,32.22625 -3.4925,18.89125 -4.7625,46.355 z m -50.4825,0 q 0,-32.54375 -2.2225,-57.94375 -2.2225,-25.4 -5.715,-44.449997 -3.4925,-19.05 -7.14375,-32.22625 8.09625,1.905 16.66875,1.905 8.5725,0 17.62125,-1.905 -3.65125,13.17625 -7.14375,32.22625 -3.4925,18.891247 -5.715,44.291247 -2.2225,25.4 -2.2225,58.1025 z"
         id="path29366" />
      <path
         d="m 782.22862,188.78667 q 0,-3.4925 -0.15875,-7.14375 0,-3.65125 -0.15875,-7.46125 -14.605,0 -30.1625,0.9525 -15.5575,1.11125 -30.32125,2.8575 -14.76375,1.905 -27.14625,4.1275 -12.3825,2.2225 -20.79625,4.7625 0.9525,-4.7625 1.42875,-9.36625 0.635,-4.445 0.635,-8.5725 0,-4.1275 -0.635,-8.255 -0.47625,-4.1275 -1.42875,-8.09625 3.96875,1.42875 9.04875,2.69875 -0.15875,-5.08 -0.47625,-12.3825 -0.3175,-7.46125 -0.79375,-15.5575 -0.47625,-8.255 -1.27,-16.03375 -0.79375,-7.9375 -1.905,-14.128747 -1.11125,-6.19125 -2.38125,-9.36625 4.28625,0.9525 7.77875,0.9525 3.81,0 9.04875,-0.9525 -1.11125,2.69875 -2.06375,9.04875 -0.79375,6.191247 -1.5875,14.446247 -0.635,8.09625 -1.27,16.66875 -0.47625,8.5725 -0.9525,16.03375 -0.3175,7.46125 -0.635,12.22375 9.2075,2.38125 20.6375,4.60375 11.58875,2.2225 24.13,4.1275 12.7,1.74625 25.7175,2.8575 13.0175,1.11125 25.24125,1.27 -0.635,-14.605 -1.905,-30.7975 -1.27,-16.35125 -3.175,-32.385 -1.905,-16.033747 -4.445,-29.686247 -28.2575,1.11125 -50.95875,4.60375 -22.5425,3.33375 -36.67125,7.62 0.9525,-4.7625 1.42875,-9.2075 0.635,-4.60375 0.635,-8.73125 0,-4.1275 -0.635,-8.255 -0.47625,-4.1275 -1.42875,-8.09625 13.97,4.7625 36.195,9.525 22.225,4.60375 50.165,6.35 -0.79375,-4.28625 -1.74625,-8.09625 -0.79375,-3.96875 -1.74625,-7.46125 8.09625,1.905 16.66875,1.905 8.5725,0 17.62125,-1.905 -2.2225,7.9375 -4.445,20.47875 -2.06375,12.3825 -3.96875,27.463747 -1.74625,14.9225 -3.33375,30.63875 -1.42875,15.5575 -2.2225,30.00375 -0.79375,14.44625 -0.79375,25.7175 z m -47.9425,-37.465 q -0.3175,-5.87375 -0.79375,-12.065 -0.47625,-6.35 -1.11125,-12.54125 -7.46125,0.9525 -13.97,2.38125 -6.35,1.42875 -10.95375,3.175 0.9525,-4.7625 0.9525,-9.525 0,-4.445 -0.9525,-9.68375 3.65125,1.5875 10.00125,2.8575 6.35,1.27 13.97,2.2225 -0.9525,-7.77875 -2.2225,-14.12875 -1.11125,-6.349997 -2.69875,-10.001247 5.23875,0.9525 9.68375,0.9525 4.7625,0 9.525,-0.9525 -1.905,4.445 -3.33375,10.953747 -1.27,6.50875 -2.2225,14.12875 6.19125,0.635 12.3825,1.11125 6.35,0.3175 12.22375,0.635 v 2.38125 q -6.35,0.635 -12.85875,1.27 -6.50875,0.635 -12.7,1.42875 -0.635,6.19125 -1.27,12.7 -0.635,6.35 -1.27,12.7 z"
         id="path29368" />
      <path
         d="m 931.61227,185.29417 -2.06375,-1.905 q -4.92125,-4.60375 -12.22375,-11.43 -7.14375,-6.82625 -15.39875,-14.2875 -8.09625,-7.46125 -16.1925,-14.2875 -7.9375,-6.985 -14.44625,-12.065 -6.50875,-5.08 -10.16,-6.985 4.445,-2.38125 7.62,-5.23875 -7.77875,2.2225 -17.145,7.9375 -9.2075,5.715 -18.0975,11.90625 1.905,-10.00125 1.905,-21.9075 0,-11.43 -1.905,-22.859997 10.4775,7.302497 21.2725,12.223747 10.795,4.92125 19.05,5.55625 l -1.11125,-1.11125 q 4.1275,-5.08 9.525,-11.747497 5.55625,-6.6675 11.27125,-13.81125 5.87375,-7.14375 11.1125,-13.97 5.3975,-6.82625 9.04875,-12.3825 3.81,-5.55625 4.92125,-8.5725 3.175,3.96875 6.19125,6.82625 3.175,2.8575 6.82625,5.08 6.985,-4.445 12.85875,-11.90625 1.11125,3.175 4.7625,8.73125 3.81,5.3975 9.04875,12.22375 5.3975,6.82625 11.27125,13.97 5.87375,7.14375 11.27125,13.81125 5.55625,6.667497 9.68375,11.747497 l -2.06375,1.905 -1.11125,-0.9525 q 6.6675,8.09625 14.76378,12.54125 -3.65128,1.905 -10.47753,7.14375 -6.6675,5.23875 -14.9225,12.54125 -8.255,7.14375 -16.8275,14.9225 -8.41375,7.77875 -15.875,14.76375 -7.46125,6.985 -12.3825,11.58875 z m -0.3175,-4.28625 q 5.3975,-6.50875 13.49375,-16.03375 8.09625,-9.525 16.35125,-19.3675 -13.335,0.47625 -21.74875,1.74625 -8.255,1.27 -13.17625,2.8575 -4.7625,1.42875 -7.46125,2.54 0.47625,-2.38125 0.79375,-4.7625 0.3175,-2.38125 0.3175,-4.92125 0,-3.81 -0.9525,-7.77875 h -0.15875 v -0.47625 q 0.9525,-4.60375 0.9525,-9.2075 0,-1.905 -0.15875,-3.81 -0.15875,-1.905 -0.635,-3.96875 h -0.15875 v -0.47625 q 0.9525,-4.60375 0.9525,-9.2075 0,-1.905 -0.15875,-3.81 -0.15875,-1.905 -0.635,-3.96875 h -0.15875 v -0.476247 q 0.9525,-4.60375 0.9525,-9.2075 0,-4.1275 -0.9525,-8.41375 2.69875,1.11125 7.62,2.8575 5.08,1.5875 13.81125,3.01625 8.89,1.27 23.1775,1.74625 -8.89,-7.9375 -17.4625,-14.76375 -8.5725,-6.82625 -14.2875,-10.16 -4.92125,2.8575 -11.90625,8.41375 -6.985,5.3975 -14.76375,12.22375 -7.77875,6.6675 -15.24,13.335 -7.46125,6.667497 -13.335,12.223747 1.11125,2.69875 4.60375,7.77875 3.4925,4.92125 8.41375,11.43 5.08,6.35 10.95375,13.49375 5.87375,6.985 11.58875,13.97 5.87375,6.985 10.95375,13.0175 5.08,5.87375 8.41375,10.16 z m 51.59375,-73.50125 q -3.65125,-3.33375 -7.77875,-6.985 -3.96875,-3.809997 -8.255,-7.619997 -14.9225,0.3175 -24.28875,1.5875 -9.2075,1.27 -14.605,2.8575 -5.3975,1.42875 -8.41375,2.698747 3.4925,1.27 12.22375,3.01625 8.73125,1.5875 21.74875,3.01625 13.0175,1.27 29.36875,1.42875 z m -5.3975,17.4625 q 7.3025,-9.36625 9.2075,-13.81125 l -0.79375,-0.79375 q -17.145,0 -30.7975,1.27 -13.6525,1.27 -22.86,3.01625 -9.04875,1.5875 -12.7,2.8575 4.92125,1.905 19.3675,4.60375 14.44625,2.54 38.57625,2.8575 z m -13.6525,17.30375 11.58875,-14.44625 q -23.1775,0.3175 -37.1475,2.8575 -13.81125,2.54 -18.7325,4.28625 2.8575,1.11125 7.9375,2.69875 5.08,1.5875 13.81125,2.8575 8.89,1.27 22.5425,1.74625 z"
         id="path29370" />
      <path
         d="m 1172.7534,189.26292 q -7.7788,-5.23875 -18.8913,-12.54125 -11.1125,-7.14375 -24.13,-15.39875 -13.0175,-8.41375 -26.67,-16.66875 -13.4937,-8.255 -26.5112,-15.5575 -12.8588,-7.46125 -23.9713,-12.85875 -10.9537,-5.55625 -18.7325,-8.09625 3.9688,-4.28625 7.1438,-9.048747 3.3337,-4.92125 5.715,-10.31875 1.27,1.42875 2.8575,3.175 1.5875,1.74625 3.6512,3.4925 3.81,-4.1275 6.985,-8.89 3.3338,-4.92125 5.715,-10.31875 2.6988,3.01625 6.35,6.82625 3.9688,-4.28625 7.1438,-9.04875 3.3337,-4.92125 5.715,-10.31875 6.1912,7.14375 15.3987,15.39875 9.2075,8.09625 20.1613,16.66875 11.1125,8.413747 22.86,16.827497 11.9062,8.255 23.0187,15.875 -1.7462,-3.65125 -3.81,-6.50875 9.2075,-1.27 20.7963,-4.28625 11.5887,-3.175 24.4475,-7.62 13.0175,-4.445 26.1937,-9.525 13.1763,-5.238747 25.4,-10.477497 3.3338,-6.6675 5.3975,-13.81125 l -8.89,-1.74625 0.9525,-1.5875 q -15.24,6.82625 -30.9562,14.44625 -15.5575,7.46125 -29.6863,15.716247 -14.1287,8.09625 -25.0825,16.98625 -1.4287,-5.55625 -3.81,-10.95375 -6.35,-4.1275 -15.0812,-9.366247 -8.7313,-5.3975 -18.8913,-10.95375 -10.16,-5.55625 -20.955,-10.4775 -10.795,-5.08 -21.1137,-8.41375 3.9687,-4.28625 7.1437,-9.04875 3.3338,-4.92125 5.715,-10.31875 5.08,6.0325 12.2238,12.7 7.3025,6.50875 15.3987,13.17625 8.0963,6.50875 16.0338,12.54125 7.9375,6.0325 14.605,10.795 l -0.4763,-0.9525 q 9.3663,-1.27 21.1138,-4.445 11.9062,-3.33375 25.0825,-7.9375 13.1762,-4.60375 26.5112,-9.8425 13.4938,-5.23875 25.8763,-10.63625 2.8575,-6.0325 4.7625,-12.7 9.3662,7.77875 21.59,15.39875 12.2237,7.62 25.8762,14.9225 13.8113,7.14375 27.7813,13.81125 13.97,6.508747 26.67,12.223747 l -1.905,4.28625 q -11.43,-5.08 -24.6063,-10.63625 -13.0175,-5.556247 -26.3525,-10.794997 -13.335,-5.23875 -25.8762,-9.36625 -12.5413,-4.28625 -23.0188,-6.6675 9.3663,7.77875 21.7488,15.5575 12.5412,7.77875 26.5112,15.081247 14.1288,7.14375 28.2575,13.81125 14.1288,6.50875 26.9875,12.065 l -1.7462,4.445 q -11.43,-5.23875 -24.765,-10.795 -13.335,-5.55625 -27.1463,-10.795 -13.8112,-5.3975 -26.8287,-9.68375 -12.8588,-4.28625 -23.495,-6.826247 9.3662,7.778747 22.225,15.716247 12.8587,7.9375 27.4637,15.5575 14.605,7.62 29.21,14.44625 14.605,6.6675 27.4638,12.22375 l -2.0638,4.60375 q -10.3187,-4.7625 -22.3837,-9.8425 -12.065,-5.23875 -24.765,-10.31875 -12.7,-5.08 -25.0825,-9.36625 -12.2238,-4.445 -23.0188,-7.62 -10.795,-3.175 -18.8912,-4.445 -14.9225,6.6675 -30.0038,13.97 -14.9225,7.3025 -28.4162,15.24 -13.4938,7.9375 -24.13,16.66875 12.065,-2.54 26.3525,-7.14375 14.4462,-4.60375 29.5275,-10.31875 15.24,-5.87375 29.3687,-11.90625 3.81,-6.82625 5.715,-14.44625 7.4613,6.19125 17.78,12.7 10.4775,6.50875 22.3838,13.0175 12.065,6.50875 24.6062,12.7 12.5413,6.0325 24.4475,11.58875 12.065,5.55625 22.225,10.16 l -2.0637,4.60375 q -10.16,-4.60375 -22.7013,-10.00125 -12.3825,-5.23875 -25.7175,-10.63625 -13.1762,-5.3975 -26.1937,-10.00125 -12.8588,-4.7625 -24.13,-8.09625 -11.2713,-3.33375 -19.5263,-4.7625 -14.9225,6.6675 -29.845,13.97 -14.9225,7.3025 -28.4162,15.24 -13.335,7.9375 -23.8125,16.51 z m -3.9688,-33.49625 q -1.1112,-2.8575 -2.54,-5.55625 -1.4287,-2.69875 -3.175,-5.23875 2.0638,-0.3175 4.2863,-0.635 2.3812,-0.47625 4.7625,-0.9525 -0.4763,-1.74625 -0.9525,-3.4925 -0.4763,-1.74625 -1.1113,-3.33375 -15.24,-10.31875 -32.0675,-20.6375 -16.8275,-10.4775 -33.4962,-19.049997 -16.6688,-8.73125 -31.9088,-13.6525 6.5088,6.19125 15.3988,13.6525 9.0487,7.302497 19.3675,15.239997 10.4775,7.77875 21.2725,15.71625 10.795,7.77875 21.1137,14.9225 10.3188,7.14375 19.05,13.0175 z m 1.7463,26.3525 q -2.8575,-7.62 -7.1438,-14.2875 2.0638,-0.3175 4.2863,-0.635 2.2225,-0.47625 4.6037,-0.9525 -0.1587,-1.27 -0.7937,-3.01625 -9.3663,-6.19125 -21.2725,-13.97 -11.7475,-7.77875 -24.9238,-15.875 -13.0175,-8.09625 -26.035,-15.5575 -13.0175,-7.46125 -24.765,-13.17625 -11.7475,-5.873747 -20.955,-8.889997 6.1913,5.714997 15.0813,13.017497 8.89,7.14375 19.3675,15.08125 10.6362,7.9375 21.9075,16.1925 11.2712,8.09625 22.225,15.875 11.1125,7.62 20.955,14.44625 9.8425,6.6675 17.4625,11.7475 z m 1.7462,-38.735 q 12.2238,-2.69875 26.8288,-7.3025 14.7637,-4.7625 30.1625,-10.63625 15.5575,-6.0325 29.845,-12.22375 1.7462,-3.33375 3.0162,-6.82625 1.4288,-3.4925 2.54,-7.143747 -4.7625,-1.11125 -9.3662,-1.905 v -0.15875 q -14.9225,6.667497 -30.1625,14.128747 -15.0813,7.3025 -28.7338,15.39875 -13.4937,7.9375 -24.13,16.66875 z"
         id="path29372" />
      <path
         d="m 1585.8206,189.10417 v -0.9525 q -17.9387,-6.0325 -31.5912,-9.68375 -13.6525,-3.65125 -24.2888,-5.715 -10.4775,-1.905 -19.05,-2.8575 -8.5725,-0.9525 -16.3512,-1.27 -7.62,-0.47625 -15.7163,-0.9525 3.9688,-6.50875 6.6675,-13.6525 -25.8762,2.8575 -44.7675,6.19125 -18.8912,3.33375 -33.8137,9.36625 1.5875,-7.9375 1.5875,-16.66875 0,-8.41375 -1.5875,-17.4625 12.7,5.23875 33.4962,8.73125 20.955,3.4925 46.8313,4.92125 0.9525,-3.4925 1.5875,-6.82625 0.7937,-3.4925 1.1112,-6.985 6.6675,4.60375 12.8588,9.04875 6.1912,4.445 13.335,8.89 7.3025,4.445 16.6687,9.2075 9.525,4.7625 22.3838,10.00125 12.8587,5.3975 30.6387,11.43 -0.1587,-37.94125 -3.4925,-65.88125 -3.3337,-27.939997 -7.62,-47.307497 -21.4312,8.255 -36.9887,16.03375 -15.5575,7.62 -26.9875,14.763747 -11.43,6.985 -20.7963,13.49375 -0.3175,-3.33375 -0.9525,-6.6675 -0.635,-3.4925 -1.7462,-6.82625 -26.67,2.8575 -46.0375,6.19125 -19.2088,3.33375 -34.29,9.525 1.5875,-7.9375 1.5875,-16.66875 0,-8.413747 -1.5875,-17.462497 12.3825,5.23875 32.8612,8.5725 20.4788,3.33375 45.8788,4.92125 -1.27,-3.65125 -3.0163,-6.985 -1.7462,-3.4925 -3.81,-6.985 11.43,-0.79375 24.765,-2.2225 13.4938,-1.42875 30.48,-4.92125 17.145,-3.4925 39.5288,-10.00125 -0.635,-3.01625 -1.4288,-5.715 -0.635,-2.69875 -1.4287,-5.23875 8.0962,1.905 16.6687,1.905 8.5725,0 17.6213,-1.905 -3.6513,13.17625 -7.1438,32.22625 -3.4925,18.891247 -5.715,44.291247 -2.2225,25.4 -2.2225,58.1025 z"
         id="path29374" />
      <path
         d="m 1737.9031,181.64292 q -5.5562,-8.09625 -12.5412,-15.08125 -6.8263,-7.14375 -16.3513,-13.81125 0.9525,-0.3175 1.905,-0.79375 0.9525,-0.47625 2.0638,-0.79375 -5.8738,-5.23875 -12.2238,-10.63625 -6.1912,-5.3975 -12.5412,-10.63625 -9.2075,11.90625 -16.51,22.70125 -7.3025,10.795 -10.795,18.89125 -4.6038,-6.82625 -10.4775,-12.7 -5.715,-5.87375 -13.6525,-11.43 6.6675,-2.69875 17.145,-10.00125 10.6362,-7.46125 22.5425,-16.98625 -11.9063,-9.525 -22.5425,-16.8275 -10.4775,-7.302497 -17.145,-10.159997 7.9375,-5.55625 13.6525,-11.43 5.8737,-5.87375 10.4775,-12.7 3.4925,8.255 10.795,19.05 7.3025,10.63625 16.51,22.701247 l 24.765,-21.272497 -3.9688,-1.74625 q 9.525,-6.6675 16.3513,-13.6525 6.985,-7.14375 12.5412,-15.24 3.3338,7.62 6.1913,14.12875 2.8575,6.35 6.1912,12.54125 3.4925,6.19125 7.9375,13.17625 4.6038,6.826247 11.1125,15.557497 0.635,-0.635 0.9525,-0.79375 -0.1587,-3.01625 -0.635,-5.715 -0.4762,-2.8575 -0.9525,-5.55625 2.6988,0.635 5.2388,1.42875 2.6987,0.79375 5.5562,1.5875 0.1588,-0.15875 0.3175,-0.3175 0.1588,-0.15875 0.3175,-0.3175 l 1.1113,1.11125 q 7.9375,2.06375 17.3037,3.96875 9.3663,1.74625 21.2725,3.33375 11.9063,1.42875 27.305,2.54 15.3988,0.9525 35.4013,1.27 v 4.445 q -19.8438,0.47625 -34.6075,1.74625 -14.7638,1.27 -25.8763,3.175 -11.1125,1.74625 -20.0025,3.96875 -8.7312,2.2225 -16.8275,4.7625 -7.9375,2.38125 -16.51,4.7625 0.635,-2.8575 1.1113,-6.0325 0.4762,-3.175 0.635,-6.50875 l -0.9525,-0.9525 q -6.35,8.5725 -10.9538,15.5575 -4.6037,6.82625 -8.0962,13.17625 -3.3338,6.19125 -6.35,12.54125 -3.0163,6.35 -6.1913,13.97 z m -19.3675,-33.02 q 9.8425,-4.60375 20.1613,-10.95375 10.3187,-6.50875 23.495,-17.30375 -13.335,-10.95375 -23.6538,-17.30375 -10.16,-6.508747 -20.0025,-10.953747 -5.5562,6.82625 -11.43,14.128747 -5.8737,7.14375 -11.43,14.12875 5.5563,7.14375 11.43,14.2875 5.8738,6.985 11.43,13.97 z"
         id="path29376" />
      <path
         d="m 2013.9692,189.10417 v -6.50875 q -13.4937,-6.50875 -29.21,-13.17625 -15.7162,-6.6675 -30.0037,-12.22375 l -0.9525,16.51 h -3.0163 q 0,-3.175 -0.1587,-7.9375 -0.1588,-4.7625 -0.4763,-10.31875 -13.6525,-5.3975 -23.495,-8.89 -9.8425,-3.4925 -12.3825,-3.65125 3.4925,-4.1275 6.1913,-9.8425 2.8575,-5.715 4.7625,-10.63625 -1.905,-5.08 -4.7625,-10.795 -2.6988,-5.715 -6.1913,-9.68375 1.905,-0.15875 7.9375,-2.222497 6.1913,-2.06375 15.24,-5.3975 9.2075,-3.4925 20.0025,-7.77875 10.9538,-4.28625 22.3838,-9.2075 11.43,-4.92125 22.225,-9.8425 -0.7938,-3.4925 -1.5875,-6.6675 -0.7938,-3.33375 -1.5875,-6.35 8.0962,1.905 16.6687,1.905 8.5725,0 17.6213,-1.905 -1.27,4.60375 -2.54,10.00125 -1.27,5.3975 -2.54,11.43 2.8575,0.635 9.8425,1.5875 7.1437,0.9525 16.9862,2.06375 10.0013,0.9525 21.59,2.06375 11.7475,0.9525 24.13,1.905 12.3825,0.79375 24.2888,1.42875 11.9062,0.635 22.225,0.9525 -1.5875,-9.36625 -3.4925,-17.145 -1.7463,-7.77875 -3.4925,-14.2875 8.0962,1.905 16.6687,1.905 8.5725,0 17.6213,-1.905 -3.6513,13.17625 -7.1438,32.22625 -3.4925,18.891247 -5.715,44.291247 -2.2225,25.4 -2.2225,58.1025 h -4.1275 q 0,-9.36625 -0.3175,-18.0975 -0.1587,-8.73125 -0.4762,-16.98625 -8.89,0.15875 -21.2725,0.79375 -12.3825,0.47625 -26.1938,1.42875 -13.6525,0.9525 -27.1462,2.06375 -13.4938,1.11125 -24.9238,2.38125 -11.2712,1.11125 -18.8912,2.06375 -7.4613,0.9525 -9.2075,1.74625 0.4762,-3.01625 0.7937,-6.50875 0.4763,-3.4925 0.4763,-7.14375 0,-6.0325 -1.27,-11.58875 1.7462,0.79375 8.89,1.905 7.1437,0.9525 17.9387,2.06375 10.795,1.11125 23.8125,2.38125 13.0175,1.11125 26.67,2.06375 13.8113,0.9525 26.67,1.5875 12.8588,0.47625 23.3363,0.635 -0.9525,-17.4625 -2.54,-32.22625 -1.5875,-14.9225 -3.6513,-27.304997 -9.6837,0.3175 -21.9075,0.9525 -12.065,0.635 -25.0825,1.5875 -13.0175,0.9525 -25.5587,2.06375 -12.3825,0.9525 -22.86,2.06375 -10.3188,1.11125 -17.145,2.06375 -6.8263,0.952497 -8.5725,1.587497 0.4762,-3.016247 0.7937,-6.508747 0.4763,-3.4925 0.4763,-7.14375 0,-2.2225 -0.1588,-4.1275 -0.1587,-2.06375 -0.4762,-4.1275 -3.6513,18.415 -6.35,43.338747 -2.6988,24.92375 -3.0163,57.62625 3.0163,1.5875 5.715,3.01625 2.6988,1.5875 5.08,2.8575 l -1.905,3.33375 q -2.0637,-1.11125 -4.2862,-2.2225 -2.2225,-1.11125 -4.6038,-2.2225 v 4.60375 z m -57.785,-50.00625 q 2.2225,-2.69875 3.81,-5.3975 1.7463,-2.8575 3.3338,-6.82625 h -0.1588 q 3.0163,-3.175 4.9213,-6.19125 1.905,-3.175 3.9687,-7.62 -0.1587,0 -0.3175,0 0,-0.15875 -0.1587,-0.15875 3.175,-3.33375 5.08,-6.35 1.905,-3.175 3.9687,-7.937497 2.3813,3.333747 7.4613,7.937497 5.08,4.60375 11.2712,9.36625 6.35,4.7625 11.7475,8.89 l -1.7462,-15.875 q -6.985,-3.65125 -14.4463,-6.35 -7.3025,-2.857497 -14.1287,-3.968747 3.175,-3.33375 5.08,-6.35 1.905,-3.175 3.9687,-7.9375 2.6988,3.96875 7.9375,8.73125 5.2388,4.7625 10.6363,9.366247 -1.1113,-8.254997 -2.3813,-15.557497 -1.27,-7.46125 -2.6987,-13.81125 -9.525,5.715 -20.0025,12.22375 -10.4775,6.50875 -20.4788,13.0175 -9.8425,6.349997 -17.78,11.747497 3.175,0.635 6.5088,0.635 3.81,0 9.0487,-0.9525 -1.4287,3.4925 -2.54,11.7475 -1.1112,8.09625 -1.905,17.62125 z m -7.4612,-1.905 q -0.7938,-8.255 -1.905,-15.39875 -1.1113,-7.14375 -2.6988,-11.1125 -5.715,3.81 -10.0012,6.985 -4.2863,3.01625 -6.5088,4.7625 2.6988,2.2225 8.255,6.0325 5.5563,3.81 12.8588,8.73125 z m 63.9762,8.89 q -0.1587,-4.1275 -0.4762,-8.09625 -0.3175,-4.1275 -0.635,-8.09625 -5.8738,-3.4925 -13.0175,-6.985 -6.985,-3.4925 -13.8113,-6.19125 -6.8262,-2.69875 -12.2237,-3.65125 2.2225,2.8575 6.985,7.14375 4.9212,4.28625 10.795,9.04875 6.0325,4.7625 11.9062,9.2075 6.0325,4.445 10.4775,7.62 z m 0.9525,20.32 q -0.1587,-4.1275 -0.3175,-8.09625 -0.1587,-4.1275 -0.4762,-7.9375 -4.7625,-2.8575 -11.43,-6.50875 -6.5088,-3.81 -13.6525,-7.3025 -7.1438,-3.65125 -13.6525,-6.19125 -6.35,-2.69875 -10.6363,-3.4925 1.7463,2.38125 6.0325,6.35 4.445,3.81 10.3188,8.41375 6.0325,4.60375 12.3825,9.36625 6.35,4.60375 12.065,8.73125 5.715,3.96875 9.3662,6.6675 z m 0.1588,10.95375 q 0,-1.74625 0,-3.65125 0,-1.74625 -0.1588,-3.33375 -3.4925,-2.2225 -9.2075,-5.3975 -5.5562,-3.33375 -12.3825,-6.985 -6.6675,-3.65125 -13.4937,-6.985 -6.8263,-3.33375 -12.8588,-5.87375 -5.8737,-2.54 -9.8425,-3.4925 v 0.3175 q 9.0488,5.715 19.05,12.065 10.16,6.35 20.1613,12.3825 10.0012,5.87375 18.7325,10.95375 z"
         id="path29378" />
    </g>
    <text
       xml:space="preserve"
       style="font-style:normal;font-variant:normal;font-weight:normal;font-stretch:normal;font-size:158.75px;line-height:1.25;font-family:'Noto Sans Cuneiform';-inkscape-font-specification:'Noto Sans Cuneiform, Normal';font-variant-ligatures:normal;font-variant-caps:normal;font-variant-numeric:normal;font-variant-east-asian:normal;display:none;fill:#000000;fill-opacity:1;stroke:none;stroke-width:0.264583"
       x="-122.3283"
       y="171.32417"
       id="text4679"><tspan
         sodipodi:role="line"
         id="tspan4677"
         style="font-style:normal;font-variant:normal;font-weight:normal;font-stretch:normal;font-size:158.75px;font-family:'Noto Sans Cuneiform';-inkscape-font-specification:'Noto Sans Cuneiform, Normal';font-variant-ligatures:normal;font-variant-caps:normal;font-variant-numeric:normal;font-variant-east-asian:normal;stroke-width:0.264583"
         x="0"
         y="0">𒁕𒀜𒋫𒀀𒇻𒈾𒈝𒀊𒁍𒅗</tspan></text>
  </g>
  <g
     inkscape:groupmode="layer"
     id="layer4"
     inkscape:label="Layer 3"
     sodipodi:insensitive="true" />
</svg>
